<mxfile host="app.diagrams.net" modified="2024-05-22T20:27:23.039Z" agent="Mozilla/5.0 (Windows NT 10.0; Win64; x64) AppleWebKit/537.36 (KHTML, like Gecko) Chrome/125.0.0.0 Safari/537.36 Edg/125.0.0.0" etag="C_Huye3DZgW5-Te-P_GT" version="24.4.6" type="github">
 <diagram id="C5RBs43oDa-KdzZeNtuy" name="Page-1">
  <mxGraphModel dx="1434" dy="2014" grid="1" gridSize="10" guides="1" tooltips="1" connect="1" arrows="1" fold="1" page="1" pageScale="1" pageWidth="827" pageHeight="1169" math="0" shadow="0">
   <root>
    <mxCell id="0" />
    <mxCell id="1" parent="0" />
    <mxCell id="23" value="" style="edgeStyle=orthogonalEdgeStyle;rounded=0;orthogonalLoop=1;jettySize=auto;html=1;" parent="1" source="0" target="27" edge="1">
     <mxGeometry relative="1" as="geometry">
      <mxPoint x="260" y="40.00000000000023" as="targetPoint" />
     </mxGeometry>
    </mxCell>
    <mxCell id="0-1" value="&lt;font style=&quot;font-size: 23px;&quot;&gt;Создание User Story&lt;/font&gt;" style="strokeWidth=2;html=1;shape=mxgraph.flowchart.terminator;whiteSpace=wrap;" parent="1" vertex="1">
     <mxGeometry x="120" y="-190" width="280" height="120" as="geometry" />
    </mxCell>
    <mxCell id="15" value="Business analysis" style="swimlane;whiteSpace=wrap;html=1;" parent="1" vertex="1">
     <mxGeometry x="40" y="200" width="550" height="1810" as="geometry">
      <mxRectangle x="40" y="200" width="140" height="30" as="alternateBounds" />
     </mxGeometry>
    </mxCell>
    <mxCell id="20" value="Blocked" style="swimlane;horizontal=0;whiteSpace=wrap;html=1;movable=1;resizable=1;rotatable=1;deletable=1;editable=1;locked=0;connectable=1;" parent="15" vertex="1">
     <mxGeometry x="-30" y="720" width="1520" height="540" as="geometry">
      <mxRectangle x="-30" y="640" width="40" height="70" as="alternateBounds" />
     </mxGeometry>
    </mxCell>
    <mxCell id="39" value="Доработка постановки задачи со стороны проектного менеджера" style="whiteSpace=wrap;html=1;arcSize=6;movable=1;resizable=1;rotatable=1;deletable=1;editable=1;locked=0;connectable=1;direction=west;" parent="20" vertex="1">
     <mxGeometry x="410" y="390" width="160" height="60" as="geometry" />
    </mxCell>
    <mxCell id="46" value="Описание соответствует&lt;div&gt;&amp;nbsp;поставленной задаче?&lt;/div&gt;" style="verticalLabelPosition=middle;verticalAlign=middle;html=1;shape=hexagon;perimeter=hexagonPerimeter2;arcSize=6;size=0.27;labelPosition=center;align=center;" parent="20" vertex="1">
     <mxGeometry x="45" y="170" width="170" height="80" as="geometry" />
    </mxCell>
    <mxCell id="53" style="edgeStyle=orthogonalEdgeStyle;rounded=0;orthogonalLoop=1;jettySize=auto;html=1;" parent="20" source="51" target="46" edge="1">
     <mxGeometry relative="1" as="geometry" />
    </mxCell>
    <mxCell id="51" value="(Задача_1)&lt;div&gt;Проверка проектным менеджером&lt;/div&gt;" style="whiteSpace=wrap;html=1;arcSize=6;" parent="20" vertex="1">
     <mxGeometry x="70" y="50" width="120" height="50" as="geometry" />
    </mxCell>
    <mxCell id="54" value="Closed" style="swimlane;horizontal=0;whiteSpace=wrap;html=1;startSize=23;" parent="15" vertex="1">
     <mxGeometry x="-30" y="1310" width="1520" height="360" as="geometry">
      <mxRectangle x="10" y="480" width="40" height="60" as="alternateBounds" />
     </mxGeometry>
    </mxCell>
    <mxCell id="81" value="(Задача_1)&lt;div&gt;Конец&lt;/div&gt;" style="strokeWidth=2;html=1;shape=mxgraph.flowchart.terminator;whiteSpace=wrap;" parent="54" vertex="1">
     <mxGeometry x="60" y="120" width="150" height="50" as="geometry" />
    </mxCell>
    <mxCell id="16" value="Development" style="swimlane;whiteSpace=wrap;html=1;" parent="1" vertex="1">
     <mxGeometry x="680" y="200" width="480" height="1810" as="geometry" />
    </mxCell>
    <mxCell id="17" value="Quality assurance" style="swimlane;whiteSpace=wrap;html=1;" parent="1" vertex="1">
     <mxGeometry x="1220" y="200" width="440" height="1806" as="geometry" />
    </mxCell>
    <mxCell id="18" value="New" style="swimlane;horizontal=0;whiteSpace=wrap;html=1;" parent="1" vertex="1">
     <mxGeometry x="10" y="230" width="1520" height="210" as="geometry">
      <mxRectangle x="10" y="230" width="40" height="50" as="alternateBounds" />
     </mxGeometry>
    </mxCell>
    <mxCell id="35" style="edgeStyle=orthogonalEdgeStyle;rounded=0;orthogonalLoop=1;jettySize=auto;html=1;" parent="18" source="50" target="46-2" edge="1">
     <mxGeometry relative="1" as="geometry" />
    </mxCell>
    <mxCell id="46-2" value="Описание соответствует&lt;div&gt;&amp;nbsp;поставленной задаче?&lt;/div&gt;" style="verticalLabelPosition=middle;verticalAlign=middle;html=1;shape=hexagon;perimeter=hexagonPerimeter2;arcSize=6;size=0.27;labelPosition=center;align=center;" parent="18" vertex="1">
     <mxGeometry x="180" y="90" width="170" height="80" as="geometry" />
    </mxCell>
    <mxCell id="50" value="(Задача_1)&lt;div&gt;Описание задачи со стороны аналитика&lt;/div&gt;" style="whiteSpace=wrap;html=1;arcSize=6;" parent="18" vertex="1">
     <mxGeometry x="10" y="10" width="160" height="60" as="geometry" />
    </mxCell>
    <mxCell id="34" value="Refining task description by PM" style="whiteSpace=wrap;html=1;" parent="18" vertex="1">
     <mxGeometry x="10" y="100" width="150" height="60" as="geometry" />
    </mxCell>
    <mxCell id="47" value="Development" style="whiteSpace=wrap;html=1;" parent="16" vertex="1">
     <mxGeometry x="10" y="200" width="150" height="60" as="geometry" />
    </mxCell>
   </root>
  </mxGraphModel>
 </diagram>
</mxfile>
